<?xml version="1.0" encoding="utf-8"?>
<!-- Generator: Adobe Illustrator 15.0.0, SVG Export Plug-In . SVG Version: 6.00 Build 0)  -->
<!DOCTYPE svg PUBLIC "-//W3C//DTD SVG 1.1//EN" "http://www.w3.org/Graphics/SVG/1.1/DTD/svg11.dtd">
<svg version="1.1" id="Capa_1" xmlns="http://www.w3.org/2000/svg" xmlns:xlink="http://www.w3.org/1999/xlink" x="0px" y="0px"
	 width="200px" height="200px" viewBox="0 0 200 200" enable-background="new 0 0 200 200" xml:space="preserve">
<title>HTML5 Logo</title>
<polygon fill="#E44D26" points="41.923,183.937 29,39.305 171,39.305 158.062,183.914 99.913,200 "/>
<polygon fill="#F16529" points="100,187.704 146.988,174.705 158.043,51.13 100,51.13 "/>
<polygon fill="#EBEBEB" points="100,104.772 76.477,104.772 74.852,86.608 100,86.608 100,68.869 99.938,68.869 55.424,68.869 
	55.85,73.628 60.219,122.511 100,122.511 "/>
<polygon fill="#EBEBEB" points="100,150.841 99.922,150.861 80.124,145.527 78.858,131.38 69.238,131.38 61.013,131.38 
	63.504,159.232 99.918,169.319 100,169.297 "/>
<path d="M42.212,0h9.034v8.906h8.264V0h9.035v26.97H59.51v-9.031h-8.264v9.031h-9.034V0L42.212,0z"/>
<path d="M80.424,8.944h-7.953V0h24.945v8.944h-7.957V26.97h-9.034L80.424,8.944L80.424,8.944z"/>
<path d="M101.374,0h9.421l5.794,9.477L122.377,0h9.424v26.97h-8.997V13.603l-6.215,9.589h-0.155l-6.22-9.589V26.97h-8.84V0z"/>
<path d="M136.297,0h9.037v18.056h12.704v8.915h-21.741V0z"/>
<polygon fill="#FFFFFF" points="99.938,104.772 99.938,122.511 121.828,122.511 119.766,145.516 99.938,150.855 99.938,169.311 
	136.382,159.232 136.649,156.235 140.826,109.535 141.261,104.772 136.471,104.772 "/>
<polygon fill="#FFFFFF" points="99.938,68.869 99.938,79.886 99.938,86.564 99.938,86.608 142.821,86.608 142.821,86.608 
	142.878,86.608 143.235,82.621 144.044,73.628 144.47,68.869 "/>
</svg>
